<svg width="234" height="50" viewBox="0 0 234 50" fill="none" xmlns="http://www.w3.org/2000/svg">
<g id="Group 35912">
<g id="Icon">
<g id="Group 35912_2">
<path id="Union" d="M16.6992 24.1771V24.0174H16.7386C21.0141 23.1611 21.9146 22.2229 22.8703 17.8494H23.0237C23.9795 22.2229 24.8799 23.1611 29.1554 24.0174H29.1948V24.1771H29.1554C24.8799 25.0333 23.9795 25.9716 23.0237 30.3451H22.8703C21.9146 25.9716 21.0141 25.0333 16.7386 24.1771H16.6992Z" fill="white"/>
</g>
<path id="Subtract" d="M29.6881 27.0973L39.4503 27.0973C39.4503 26.7689 39.4518 26.4446 39.4533 26.124C39.4693 22.6287 39.4832 19.5686 37.5518 16.3226C35.7331 13.2661 32.8882 10.9504 29.5212 9.7859C26.1543 8.6214 22.4827 8.6833 19.1571 9.96064C18.1984 10.3289 17.2862 10.7913 16.4324 11.3377L14.1374 8.44929C16.4461 6.9708 19.0583 5.99348 21.8041 5.6011C25.8526 5.02254 29.9807 5.74582 33.5892 7.66597C37.1977 9.58612 40.0987 12.6032 41.8713 16.2794C43.4959 19.6484 44.0951 23.4103 43.6075 27.1021H49.0653C49.5278 22.5981 48.7358 18.0396 46.757 13.9359C44.4849 9.22386 40.7664 5.3566 36.1411 2.89539C31.5158 0.43418 26.2245 -0.49291 21.0352 0.248676C15.8464 0.990173 11.0295 3.36136 7.28346 7.01815L6.76885 7.42579L6.81127 7.47917L6.78424 7.50555L7.03604 7.76205L12.6355 14.8093C12.1602 15.4236 11.7309 16.0768 11.3526 16.7644C9.63852 19.8805 9.08577 23.5012 9.79236 26.9849C10.4989 30.4687 12.4192 33.5905 15.2129 35.7971C18.0066 38.0037 21.4933 39.1526 25.0552 39.0404C27.0843 38.9764 29.0198 38.5588 30.8055 37.7621L33.7054 41.4642C31.4768 42.6698 29.0189 43.4307 26.4693 43.6879C22.5305 44.0853 18.5648 43.2612 15.113 41.3279C11.6611 39.3947 8.89123 36.4465 7.18114 32.8855C6.29875 31.048 5.72069 29.0935 5.45759 27.097H0C0.287268 29.9004 1.05708 32.6502 2.29173 35.2211C4.48369 39.7856 8.03407 43.5646 12.4586 46.0426C16.8831 48.5206 21.9663 49.5769 27.0149 49.0676C32.0635 48.5582 36.8316 46.5079 40.6689 43.1964L41.1957 42.7418L40.9604 42.4704L40.9996 42.4399L34.9767 34.9325L35.0001 34.9116L31.8002 30.8977L31.2498 31.392C29.4994 32.9637 27.2477 33.8667 24.8936 33.9409C22.5395 34.0151 20.2351 33.2558 18.3887 31.7974C16.5423 30.339 15.2732 28.2758 14.8062 25.9733C14.3392 23.6709 14.7045 21.2779 15.8374 19.2184C16.9703 17.159 18.7976 15.566 20.9955 14.7218C23.1934 13.8776 25.62 13.8367 27.8452 14.6063C30.0705 15.3759 31.9507 16.9064 33.1528 18.9265C33.7184 19.8771 34.1167 20.9073 34.3394 21.9731H29.6881V27.0973Z" fill="#FF6B29"/>
</g>
<g id="ergonnex">
<path id="Vector" d="M226.85 37.0968L220.955 27.9981L219.701 27.0696L210.974 14.6749H218.169L223.601 22.8916L224.761 23.7737L233.999 37.0968H226.85ZM210.51 37.0968L219.655 24.2843L223.137 28.4159L217.38 37.0968H210.51ZM224.993 27.0232L221.419 22.9381L226.758 14.6749H233.582L224.993 27.0232Z" fill="white"/>
<path id="Vector_2" d="M201.35 37.5606C198.998 37.5606 196.909 37.0654 195.083 36.0751C193.257 35.0538 191.802 33.6611 190.719 31.8971C189.667 30.133 189.141 28.1214 189.141 25.8622C189.141 23.6339 189.651 21.6533 190.673 19.9202C191.725 18.1561 193.148 16.7635 194.943 15.7422C196.738 14.6899 198.735 14.1638 200.932 14.1638C203.098 14.1638 205.002 14.659 206.642 15.6493C208.313 16.6087 209.613 17.9395 210.541 19.6416C211.501 21.3128 211.98 23.2161 211.98 25.3516C211.98 25.7539 211.949 26.1717 211.887 26.6049C211.857 27.0073 211.779 27.4715 211.655 27.9976L192.808 28.044V23.4947L208.824 23.4482L206.363 25.3516C206.301 24.0208 206.054 22.9067 205.62 22.0092C205.218 21.1117 204.615 20.4308 203.81 19.9666C203.036 19.4714 202.077 19.2238 200.932 19.2238C199.725 19.2238 198.673 19.5024 197.775 20.0594C196.878 20.5855 196.181 21.3438 195.686 22.3341C195.222 23.2935 194.99 24.4386 194.99 25.7693C194.99 27.1311 195.237 28.3226 195.733 29.3439C196.259 30.3342 197.001 31.1079 197.961 31.665C198.92 32.1911 200.034 32.4541 201.303 32.4541C202.448 32.4541 203.485 32.2684 204.414 31.8971C205.342 31.4947 206.147 30.9067 206.827 30.133L210.402 33.7075C209.319 34.9764 207.988 35.9358 206.41 36.5857C204.862 37.2356 203.176 37.5606 201.35 37.5606Z" fill="white"/>
<path id="Vector_3" d="M181.968 37.0957V24.2368C181.968 22.906 181.55 21.8228 180.715 20.9872C179.879 20.1516 178.796 19.7338 177.465 19.7338C176.599 19.7338 175.825 19.9195 175.144 20.2909C174.463 20.6623 173.922 21.1884 173.519 21.8692C173.148 22.5501 172.962 23.3393 172.962 24.2368L170.595 23.0298C170.595 21.2658 170.966 19.7338 171.709 18.434C172.482 17.1032 173.535 16.0665 174.865 15.3237C176.227 14.581 177.759 14.2096 179.461 14.2096C181.102 14.2096 182.572 14.6274 183.871 15.463C185.171 16.2676 186.192 17.3354 186.935 18.6661C187.678 19.9659 188.049 21.3741 188.049 22.8905V37.0957H181.968ZM166.881 37.0957V14.6738H172.962V37.0957H166.881Z" fill="white"/>
<path id="Vector_4" d="M158.222 37.0957V24.2368C158.222 22.906 157.804 21.8228 156.969 20.9872C156.133 20.1516 155.05 19.7338 153.719 19.7338C152.852 19.7338 152.079 19.9195 151.398 20.2909C150.717 20.6623 150.175 21.1884 149.773 21.8692C149.402 22.5501 149.216 23.3393 149.216 24.2368L146.849 23.0298C146.849 21.2658 147.22 19.7338 147.963 18.434C148.736 17.1032 149.789 16.0665 151.119 15.3237C152.481 14.581 154.013 14.2096 155.715 14.2096C157.355 14.2096 158.825 14.6274 160.125 15.463C161.425 16.2676 162.446 17.3354 163.189 18.6661C163.932 19.9659 164.303 21.3741 164.303 22.8905V37.0957H158.222ZM143.135 37.0957V14.6738H149.216V37.0957H143.135Z" fill="white"/>
<path id="Vector_5" d="M129.562 37.5606C127.303 37.5606 125.261 37.0499 123.435 36.0286C121.64 34.9764 120.201 33.5683 119.117 31.8042C118.065 30.0092 117.539 28.0131 117.539 25.8158C117.539 23.6185 118.065 21.6533 119.117 19.9202C120.17 18.1561 121.609 16.7635 123.435 15.7422C125.261 14.6899 127.288 14.1638 129.516 14.1638C131.806 14.1638 133.849 14.6899 135.644 15.7422C137.47 16.7635 138.909 18.1561 139.961 19.9202C141.013 21.6533 141.539 23.6185 141.539 25.8158C141.539 28.0131 141.013 30.0092 139.961 31.8042C138.909 33.5683 137.47 34.9764 135.644 36.0286C133.849 37.0499 131.822 37.5606 129.562 37.5606ZM129.516 31.8971C130.661 31.8971 131.667 31.6495 132.533 31.1543C133.431 30.6282 134.112 29.9164 134.576 29.0189C135.071 28.0905 135.319 27.0382 135.319 25.8622C135.319 24.6862 135.071 23.6494 134.576 22.7519C134.081 21.8544 133.4 21.1581 132.533 20.6629C131.667 20.1368 130.661 19.8737 129.516 19.8737C128.402 19.8737 127.412 20.1368 126.545 20.6629C125.678 21.1581 124.998 21.8544 124.502 22.7519C124.007 23.6494 123.76 24.6862 123.76 25.8622C123.76 27.0382 124.007 28.0905 124.502 29.0189C124.998 29.9164 125.678 30.6282 126.545 31.1543C127.412 31.6495 128.402 31.8971 129.516 31.8971Z" fill="white"/>
<path id="Vector_6" d="M103.841 47.03C101.458 47.03 99.3538 46.5968 97.5279 45.7302C95.7019 44.8946 94.2474 43.7031 93.1642 42.1557L97.0172 38.3027C97.8838 39.324 98.8432 40.0977 99.8954 40.6238C100.979 41.1808 102.278 41.4594 103.795 41.4594C105.683 41.4594 107.168 40.9797 108.251 40.0203C109.366 39.0609 109.923 37.7301 109.923 36.028V30.4109L110.944 25.4902L109.969 20.5694V14.6738H116.004V35.9351C116.004 38.1634 115.478 40.0977 114.426 41.7379C113.404 43.4091 111.981 44.7089 110.155 45.6374C108.329 46.5658 106.224 47.03 103.841 47.03ZM103.563 36.4922C101.551 36.4922 99.7407 36.0125 98.1314 35.0531C96.5221 34.0628 95.2532 32.7165 94.3248 31.0144C93.4273 29.3123 92.9785 27.409 92.9785 25.3045C92.9785 23.2 93.4273 21.3122 94.3248 19.641C95.2532 17.9698 96.5221 16.6545 98.1314 15.6951C99.7407 14.7048 101.551 14.2096 103.563 14.2096C105.234 14.2096 106.704 14.5345 107.973 15.1845C109.273 15.8344 110.294 16.7319 111.037 17.8769C111.779 18.9911 112.182 20.3064 112.244 21.8228V28.879C112.182 30.3645 111.764 31.6953 110.99 32.8713C110.248 34.0164 109.226 34.9139 107.926 35.5638C106.658 36.1827 105.203 36.4922 103.563 36.4922ZM104.77 30.968C105.884 30.968 106.843 30.7359 107.648 30.2716C108.484 29.7765 109.133 29.1111 109.598 28.2755C110.062 27.409 110.294 26.4341 110.294 25.3509C110.294 24.2368 110.062 23.2619 109.598 22.4263C109.133 21.5907 108.484 20.9408 107.648 20.4766C106.843 19.9814 105.884 19.7338 104.77 19.7338C103.656 19.7338 102.681 19.9814 101.845 20.4766C101.01 20.9408 100.36 21.6062 99.8954 22.4727C99.4312 23.3083 99.1991 24.2677 99.1991 25.3509C99.1991 26.4031 99.4312 27.3625 99.8954 28.2291C100.36 29.0647 101.01 29.7301 101.845 30.2252C102.681 30.7204 103.656 30.968 104.77 30.968Z" fill="white"/>
<path id="Vector_7" d="M78.1074 37.0957V14.6738H84.1887V37.0957H78.1074ZM84.1887 24.701L81.8212 23.1226C82.0997 20.3683 82.9044 18.2019 84.2351 16.6235C85.5659 15.0142 87.4847 14.2096 89.9915 14.2096C91.0747 14.2096 92.0495 14.3953 92.9161 14.7667C93.7826 15.1071 94.5718 15.6796 95.2836 16.4843L91.477 20.848C91.1366 20.4766 90.7188 20.198 90.2236 20.0124C89.7594 19.8267 89.2178 19.7338 88.5988 19.7338C87.299 19.7338 86.2313 20.1516 85.3957 20.9872C84.591 21.7919 84.1887 23.0298 84.1887 24.701Z" fill="white"/>
<path id="Vector_8" d="M66.0372 37.5606C63.6851 37.5606 61.5961 37.0654 59.7702 36.0751C57.9442 35.0538 56.4897 33.6611 55.4065 31.8971C54.3542 30.133 53.8281 28.1214 53.8281 25.8622C53.8281 23.6339 54.3388 21.6533 55.3601 19.9202C56.4123 18.1561 57.8359 16.7635 59.6309 15.7422C61.4259 14.6899 63.422 14.1638 65.6194 14.1638C67.7857 14.1638 69.689 14.659 71.3293 15.6493C73.0005 16.6087 74.3003 17.9395 75.2287 19.6416C76.1881 21.3128 76.6678 23.2161 76.6678 25.3516C76.6678 25.7539 76.6369 26.1717 76.575 26.6049C76.544 27.0073 76.4667 27.4715 76.3429 27.9976L57.4955 28.044V23.4947L73.5111 23.4482L71.0507 25.3516C70.9888 24.0208 70.7413 22.9067 70.308 22.0092C69.9057 21.1117 69.3022 20.4308 68.4975 19.9666C67.7238 19.4714 66.7644 19.2238 65.6194 19.2238C64.4124 19.2238 63.3601 19.5024 62.4626 20.0594C61.5652 20.5855 60.8688 21.3438 60.3736 22.3341C59.9094 23.2935 59.6773 24.4386 59.6773 25.7693C59.6773 27.1311 59.9249 28.3226 60.4201 29.3439C60.9462 30.3342 61.6889 31.1079 62.6483 31.665C63.6077 32.1911 64.7219 32.4541 65.9907 32.4541C67.1358 32.4541 68.1726 32.2684 69.101 31.8971C70.0295 31.4947 70.8341 30.9067 71.515 30.133L75.0895 33.7075C74.0063 34.9764 72.6755 35.9358 71.0972 36.5857C69.5498 37.2356 67.8631 37.5606 66.0372 37.5606Z" fill="white"/>
</g>
</g>
</svg>
